<?xml version="1.0" encoding="UTF-8"?>
<svg width="1200pt" height="1200pt" version="1.1" viewBox="0 0 1200 1200" xmlns="http://www.w3.org/2000/svg">
  <defs>
    <mask id="cutout">
      <!-- Fill the mask -->
      <rect width="100%" height="100%" fill="white" />
      <!-- Transparent cutouts-->
      <path d="m596.16 819.94-47.578-94.734h0.046875c-2.2031-4.6406-6.8906-7.5469-12-7.4531-22.406 0-53.016 3.4688-69.375-15.516l-102.8-102.8c-29.672 44.391-99.234 95.297-125.58 113.77l-163.87 163.74h566.95c-18.469-16.172-33.984-35.484-45.797-57z" fill="black"/>
      <path d="m1074.3 817.36c-11.812-13.828-28.078-23.203-45.984-26.531-25.781-5.6719-48.984-19.688-66-39.891l-75.656-90.188c-36.375 17.625-74.766 30.562-114.38 38.531l128.9 116.53c7.9219 7.3125 8.5312 19.641 1.3125 27.656s-19.547 8.7656-27.656 1.5938l-132.47-119.67c-11.719-10.734-18-26.156-17.062-42.047 0.14063-5.4844 7.0781-35.812 8.25-41.859l-44.203-26.531c-39.609-20.156-82.828-88.5-110.77-122.06v-67.266c38.812 4.125 44.297 17.578 91.688 17.25v0.046875c4.0781 0 7.9688-1.5938 10.828-4.4531 2.8594-2.9062 4.5-6.7969 4.4531-10.828v-71.391c0-4.0781-1.5938-7.9688-4.4531-10.828-2.8594-2.8594-6.75-4.4531-10.828-4.4531-51.562-0.375-51.938-18.141-107.02-17.859l0.046874-0.046875c-8.4375 0.046875-15.281 6.8906-15.281 15.281v143.9c-13.828 12.516-28.922 23.531-45 32.859l-83.531 83.719 75.656 75.656c3.7969 6.7969 34.594 3.0469 41.484 3.9375 19.969 0 38.203 11.25 47.156 29.109l47.344 94.922c9.5156 23.156 49.922 56.156 66.422 74.484h427.45z" fill="black"/>
    </mask>
  </defs>

  <!-- Background with masked-out shapes -->
  <rect width="100%" height="100%" fill="#2f4d73" mask="url(#cutout)" />
</svg>
